# xmcd
#
# Track frame offsets: 
#        150
#        23133
#        43314
#        65812
#        81515
#        108646
#        126165
#        144640
#        158519
#        188421
#
# Disc length: 2745 seconds
#
# Revision: 1
# Processed by: cddbd v1.5.2PL0 Copyright (c) Steve Scherf et al.
# Submitted via: ExactAudioCopy v1.0b1
#
DISCID=8c0ab70a
DTITLE=Punch Brothers - Antifogmatic
DYEAR=2010
DGENRE=Bluegrass
TTITLE0=You Are
TTITLE1=Don't Need No
TTITLE2=Alex
TTITLE3=Rye Whiskey
TTITLE4=Me and Us
TTITLE5=Missy
TTITLE6=The Woman and the Bell
TTITLE7=Next to the Trash
TTITLE8=Welcome Home
TTITLE9=This Is the Song (Good Luck)
EXTD=
EXTT0=
EXTT1=
EXTT2=
EXTT3=
EXTT4=
EXTT5=
EXTT6=
EXTT7=
EXTT8=
EXTT9=
PLAYORDER=
